<?xml version="1.0" encoding="UTF-8" standalone="no"?>
<svg
   xmlns:dc="http://purl.org/dc/elements/1.1/"
   xmlns:cc="http://creativecommons.org/ns#"
   xmlns:rdf="http://www.w3.org/1999/02/22-rdf-syntax-ns#"
   xmlns:svg="http://www.w3.org/2000/svg"
   xmlns="http://www.w3.org/2000/svg"
   version="1.1"
   width="1020"
   height="880"
   viewBox="0 0 1020 880"
   id="svg2"
   xml:space="preserve"><metadata
     id="metadata9"><rdf:RDF><cc:Work
         rdf:about=""><dc:format>image/svg+xml</dc:format><dc:type
           rdf:resource="http://purl.org/dc/dcmitype/StillImage" /><dc:title></dc:title></cc:Work></rdf:RDF></metadata><defs
     id="defs7"><pattern
       id="EMFhbasepattern"
       patternUnits="userSpaceOnUse"
       width="6"
       height="6"
       x="0"
       y="0" /></defs><g
     transform="matrix(10.410815,0,0,10.410815,76.508459,2.7457649)"
     id="g3"><g
       id="g5"><path
         d="m 376.21875,2.75 c -30.43081,9.088641 -59.58834,21.164589 -87.03125,36 14.825,56.676477 3.03041,102.55293 -35.53125,141.125 -38.56166,38.56166 -84.44852,60.78334 -141.125,45.96875 C 97.685428,253.26584 85.599052,282.43378 76.5,312.875 c 50.54451,29.56671 84.125,72.61397 84.125,127.125 0,54.51103 -33.58049,107.97496 -84.125,137.5625 9.099052,30.44122 21.185428,59.57793 36.03125,87.03125 56.67648,-14.83541 102.56334,-3.03041 141.125,35.53125 38.55125,38.57207 50.35625,84.44852 35.53125,141.125 27.44291,14.83541 56.59003,26.92177 87.03125,36 29.59795,-50.54451 83.00981,-84.125 137.53125,-84.125 54.53185,0 107.97496,33.58049 137.5625,84.125 30.45163,-9.09905 59.61959,-21.17502 87.0625,-36.03125 -14.825,-56.65566 -3.06166,-102.52168 35.5,-141.09375 38.56166,-38.56166 84.44852,-60.77291 141.125,-45.9375 14.84582,-27.45332 26.9322,-56.62128 36.03125,-87.0625 -50.54451,-29.57713 -84.125,-72.60356 -84.125,-127.125 0,-54.52144 33.58049,-97.57912 84.125,-127.15625 C 941.9322,282.41294 929.84582,253.26582 915,225.8125 858.32352,240.64791 812.43666,218.43666 773.875,179.875 735.31334,141.31334 723.50834,95.447316 738.34375,38.78125 710.91125,23.925017 681.76413,11.849052 651.3125,2.75 621.72496,53.304918 568.28185,86.875 513.75,86.875 459.22856,86.875 405.8167,53.315328 376.21875,2.75 z M 513.75,236.125 c 112.60027,0 203.875,91.27473 203.875,203.875 0,112.60027 -91.27473,203.875 -203.875,203.875 -112.5891,0 -203.84375,-91.27473 -203.84375,-203.875 0,-112.60027 91.24348,-203.875 203.84375,-203.875 z"
         transform="matrix(0.09605396,0,0,0.09605396,-7.3489404,-0.26374159)"
         id="path2997"
         style="fill:#030104" /></g></g></svg>