<?xml version="1.0" encoding="UTF-8" standalone="no"?>
<svg
   xmlns:dc="http://purl.org/dc/elements/1.1/"
   xmlns:cc="http://creativecommons.org/ns#"
   xmlns:rdf="http://www.w3.org/1999/02/22-rdf-syntax-ns#"
   xmlns:svg="http://www.w3.org/2000/svg"
   xmlns="http://www.w3.org/2000/svg"
   id="svg2"
   xml:space="preserve"
   enable-background="new 0 0 512 512"
   viewBox="0 0 1020 880"
   height="880"
   width="1020"
   y="0px"
   x="0px"
   version="1.1"><metadata
     id="metadata9"><rdf:RDF><cc:Work
         rdf:about=""><dc:format>image/svg+xml</dc:format><dc:type
           rdf:resource="http://purl.org/dc/dcmitype/StillImage" /><dc:title></dc:title></cc:Work></rdf:RDF></metadata><defs
     id="defs7"><pattern
       id="EMFhbasepattern"
       patternUnits="userSpaceOnUse"
       width="6"
       height="6"
       x="0"
       y="0" /></defs><path
     style="fill:#000000;fill-opacity:1;fill-rule:nonzero;stroke:none"
     d="m 513.86267,6.5859564 c -67.30105,0 -112.40834,29.9281126 -140.1887,58.7106716 -22.62528,-3.723133 -44.24811,6.586912 -54.70156,47.541302 -6.87351,26.63459 -5.72794,52.12361 1.57515,70.16633 -14.31975,12.0286 -23.48442,30.50059 -23.48442,51.26421 0,28.92598 17.75656,53.26958 42.24337,62.43427 l 0,81.04992 c 0,47.25337 43.81852,85.77356 97.80406,85.77356 l 153.64932,0 c 53.84238,0 97.66091,-38.52019 97.66091,-85.77356 l 0,-81.04992 c 24.63004,-9.02147 42.24337,-33.50829 42.24337,-62.29104 0,-20.7637 -9.16467,-39.37884 -23.34126,-51.40744 7.15987,-18.04272 8.3055,-43.53174 1.43199,-70.16633 C 698.44466,72.026753 676.82178,61.573495 654.05332,65.296628 625.98654,36.657282 580.73609,6.5859564 513.86267,6.5859564 Z m 0,48.9732366 c 50.97846,0 95.94254,17.899495 122.72056,50.548457 0.57301,0.71596 1.00234,1.43194 1.57514,2.14797 12.45822,15.89476 20.62049,35.22646 23.34126,57.70832 l -295.27195,0 c 2.14797,-17.47017 7.58944,-33.07855 15.75173,-46.68211 3.15037,-4.86875 7.30308,-10.59661 12.31505,-16.61093 27.06439,-30.500994 70.45331,-47.111707 119.56821,-47.111707 z M 365.5117,186.15463 l 18.47251,0 c 0,0.14347 0,0.28617 0.14347,0.4296 l 10.0238,36.94442 c 1.71838,6.58711 7.73268,11.16941 14.60619,11.16941 l 63.86625,0 c 5.44149,0 10.59472,-3.00714 13.3155,-7.87583 l 20.19089,-37.08771 c 0.57301,-1.14555 1.00234,-2.43433 1.43193,-3.57989 l 12.74465,0 c 0.28617,1.14556 0.85919,2.43434 1.43194,3.57989 l 20.19087,37.08771 c 2.57757,4.86869 7.7327,7.87583 13.17425,7.87583 l 63.86619,0 c 6.87349,0 12.88781,-4.5823 14.60618,-11.16941 l 10.16702,-36.94442 c 0,-0.14347 0,-0.28617 0,-0.4296 l 18.47251,0 c -0.42959,13.17363 -2.57756,26.3478 -6.30068,39.37882 4.43915,-5.44155 8.44865,-11.16941 11.8854,-17.04058 12.4582,0 22.62529,11.59903 22.62529,25.7756 0,14.3198 -10.16709,25.91882 -22.62529,25.91882 -3.00716,0 -5.72787,-0.71596 -8.30544,-1.86158 -1.71836,4.86874 -3.72317,9.73749 -5.87114,14.46301 -2.43434,2.57756 -4.15272,6.01432 -5.4415,9.73743 -19.3317,-1.0024 -44.1049,8.01906 -66.15737,26.20519 -3.00716,2.43436 -5.58473,5.0119 -8.16228,7.44632 l -2.00475,-9.59427 c -2.148,-9.16469 -10.31029,-15.75174 -19.76134,-15.75174 l -76.03613,0 c -9.3079,0 -17.47017,6.58705 -19.61814,15.75174 l -2.29112,9.88063 c -2.57756,-2.57755 -5.29834,-5.15511 -8.44871,-7.73268 -20.62049,-17.0405 -43.96167,-26.20519 -62.72064,-26.20519 -2.86393,-4.72553 -5.58471,-8.3055 -8.59187,-10.73983 -2.00474,-4.43916 -4.00948,-9.02146 -5.5847,-13.60377 -2.72072,1.28878 -5.58473,2.00474 -8.73502,2.00474 -12.60143,0 -22.6253,-11.59902 -22.6253,-25.91882 0,-14.17657 10.02387,-25.7756 22.48207,-25.7756 3.43675,5.87117 7.44631,11.59903 11.8854,17.04058 -3.72313,-13.03102 -5.87108,-26.20519 -6.30068,-39.37882 z m 148.35097,64.58161 c -13.89013,0 -25.20278,4.43915 -25.20278,10.02388 0,5.5847 11.31265,10.16701 25.20278,10.16701 13.8902,0 25.20286,-4.58231 25.20286,-10.16701 0,-5.58473 -11.31266,-10.02388 -25.20286,-10.02388 z m -21.76604,80.47718 43.81853,0 4.72552,21.33646 c -6.58712,-3.00716 -16.18133,-5.0119 -26.77801,-5.0119 -10.45338,0 -19.90445,1.86152 -26.63479,5.0119 l 4.86875,-21.33646 z m -31.50165,162.38434 c -17.18373,0 -25.48915,13.89021 -16.32454,30.07154 3.86635,7.0167 39.66392,82.76835 39.66392,82.76835 l -5.72604,121.14344 C 454.43753,684.33538 416.06051,594.83863 395.2968,544.5762 c -0.14347,0 -0.14347,0 -0.14347,0 -4.29593,-12.31504 -15.89495,-21.05006 -29.64195,-21.05006 -3.72311,0 -7.30308,0.71596 -10.5966,1.86152 0,0 0,0 -0.14347,0 -5.58471,1.8616 -122.71954,53.12643 -203.48255,94.22417 -36.2288,18.47251 -58.13785,41.38229 -58.13785,65.58274 l 0,190.16664 418.5633,0 0.4296,0 0.14347,0 0,0 0.14347,0 0.42959,0 0.573,0 0.57302,0 0.4296,0 0.14347,0 0,0 0.28617,0 0.28617,0 418.56523,0 0,-190.16664 c 0,-24.20045 -21.9092,-47.11023 -58.13829,-65.58274 -80.76355,-41.09774 -197.89743,-92.36257 -203.48214,-94.22417 0,0 -0.14347,0 -0.14347,0 -3.29353,-1.14556 -6.8735,-1.86152 -10.59662,-1.86152 -13.60382,0 -25.346,8.73502 -29.64194,21.05006 0,0 0,0 0,0 -20.90693,50.26243 -59.14073,139.75918 -82.91151,183.00489 l -5.72801,-121.14344 c 0,0 35.65625,-75.75165 39.52259,-82.76835 9.3079,-16.18133 1.00241,-30.07154 -16.32455,-30.07154 l -51.40798,0 0,0 -0.42959,0 -0.14347,0 -0.85919,0 -0.85919,0 -0.14347,0 -0.28617,0 -0.14347,0 -51.40607,0 z"
     id="path4139" /></svg>