<?xml version="1.0" encoding="UTF-8"?>
<svg width="202.74mm" height="291.36mm" version="1.1" viewBox="0 0 718.37302 1032.3926" xmlns="http://www.w3.org/2000/svg" xmlns:cc="http://creativecommons.org/ns#" xmlns:dc="http://purl.org/dc/elements/1.1/" xmlns:rdf="http://www.w3.org/1999/02/22-rdf-syntax-ns#">
<metadata>
<rdf:RDF>
<cc:Work rdf:about="">
<dc:format>image/svg+xml</dc:format>
<dc:type rdf:resource="http://purl.org/dc/dcmitype/StillImage"/>
<dc:title/>
</cc:Work>
</rdf:RDF>
</metadata>
<path d="m594.26 174.49-4.9962 11.941-1.4062 8.59 0.2597 3.2228-12.893 1.6973-0.58201-3.1798-3.5821-7.9338-7.9182-10.24-8.0842 2.166-1.7344 12.826 0.86332 8.6623 1.086 3.045-12.014 4.9767-1.3867-2.92-5.5138-6.7364-10.297-7.844-7.2482 4.1856 1.6445 12.838 3.0763 8.1447 1.8359 2.6603-10.316 7.9143-2.0938-2.461-7.0686-5.0802-11.977-4.9103-5.918 5.9181 4.9102 11.977 5.0802 7.0686 2.461 2.0958-7.9162 10.314-2.6602-1.8359-8.1428-3.0763-12.84-1.6426-4.1837 7.2482 7.842 10.297 6.7364 5.5138 2.92 1.3848-4.9747 12.014-3.045-1.084-8.6623-0.86526-12.826 1.7363-2.168 8.0842 10.242 7.9162 7.9338 3.5821 3.1778 0.584-1.6972 12.891-3.2208-0.25976-8.5901 1.4062-11.941 4.9962v8.3693l11.941 4.9962 8.5901 1.4082 3.2208-0.25978 1.6972 12.891-3.1778 0.58399-7.9338 3.5821-10.242 7.9162 2.168 8.0842 12.826 1.7363 8.6623-0.86525 3.045-1.084 4.9747 12.012-2.92 1.3867-6.7364 5.5138-7.842 10.297 4.1837 7.2482 12.84-1.6426 8.1428-3.0763 2.6602-1.8359 7.9162 10.314-2.461 2.0958-5.0802 7.0686-4.9102 11.977 5.918 5.9181 11.977-4.9103 7.0686-5.0802 2.0938-2.461 10.316 7.9143-1.8359 2.6603-3.0763 8.1447-1.6445 12.838 7.2482 4.1857 10.297-7.844 5.5138-6.7364 1.3867-2.92 12.014 4.9767-1.086 3.045-0.86332 8.6623 1.7344 12.826 8.0842 2.166 7.9182-10.24 3.5821-7.9338 0.58201-3.1798 12.893 1.6973-0.2597 3.2228 1.4062 8.59 4.9962 11.941h8.3693l4.9962-11.941 1.4082-8.59-0.25971-3.2228 12.891-1.6973 0.58401 3.1798 3.5821 7.9338 7.9162 10.24 8.0842-2.166 1.7363-12.826-0.86522-8.6623-1.084-3.045 12.012-4.9767 1.3868 2.92 5.5137 6.7364 10.297 7.844 7.2482-4.1857-1.6445-12.838-3.0763-8.1447-1.8359-2.6603 10.316-7.9143 2.0938 2.461 7.0705 5.0802 11.976 4.9103 5.9181-5.9181-4.9122-11.977-5.0782-7.0686-2.463-2.0958 7.9162-10.314 2.6603 1.8359 8.1427 3.0763 12.84 1.6426 4.1837-7.2482-7.842-10.297-6.7366-5.5138-2.92-1.3867 4.9767-12.012 3.045 1.084 8.6623 0.86525 12.826-1.7363 2.166-8.0842-10.24-7.9162-7.9338-3.5821-3.1798-0.58399 1.6973-12.891 3.2208 0.25978 8.592-1.4082 11.939-4.9962v-8.3693l-11.939-4.9962-8.592-1.4062-3.2208 0.25976-1.6973-12.891 3.1798-0.584 7.9338-3.5821 10.24-7.9162-2.166-8.0842-12.826-1.7363-8.6623 0.86526-3.045 1.084-4.9767-12.014 2.92-1.3848 6.7366-5.5138 7.842-10.297-4.1837-7.2482-12.84 1.6426-8.1427 3.0763-2.6603 1.8359-7.9162-10.314 2.463-2.0958 5.0782-7.0686 4.9122-11.977-5.9181-5.9181-11.976 4.9103-7.0705 5.0802-2.0938 2.461-10.316-7.9143 1.8359-2.6603 3.0763-8.1447 1.6445-12.838-7.2482-4.1856-10.297 7.844-5.5137 6.7364-1.3868 2.92-12.012-4.9767 1.084-3.045 0.86522-8.6623-1.7363-12.826-8.0842-2.166-7.9162 10.24-3.5821 7.9338-0.58401 3.1798-12.891-1.6973 0.25971-3.2228-1.4082-8.59-4.9962-11.941h-8.3693zm4.1856 60.14a91.875 91.875 0 0 1 91.873 91.875 91.875 91.875 0 0 1 -91.873 91.875 91.875 91.875 0 0 1 -91.875 -91.875 91.875 91.875 0 0 1 91.875 -91.875z" fill="#e9e9e9" stroke="#818181"/>
<g stroke="#818181">
<path d="m354.79 304.9-6.0896 13.928-0.86517 6.6385 0.78708 6.9373-15.408 3.0643-1.9277-6.7107-3.3397-5.8006-10.955-10.539-8.2967 3.4374-0.29679 15.199 1.742 6.4627 3.3828 6.1072-13.064 8.7282-4.3476-5.4627-5.3044-4.0819-14.156-5.5428-6.3494 6.3494 5.5428 14.156 4.0819 5.3045 5.4627 4.3495-8.7282 13.062-6.1092-3.3827-6.4627-1.7402-15.199 0.29492-3.4355 8.2966 10.537 10.957 5.8025 3.3397 6.7107 1.9257-3.0643 15.41-6.9393-0.78904-6.6365 0.86522-13.93 6.0896v8.9802l13.93 6.0896 6.6365 0.86522 6.9393-0.78905 3.0643 15.41-6.7107 1.9276-5.8025 3.3378-10.537 10.957 3.4355 8.2966 15.199 0.29492 6.4627-1.7402 6.1092-3.3827 8.7282 13.062-5.4627 4.3495-4.0819 5.3046-5.5428 14.156 6.3494 6.3494 14.156-5.5428 5.3044-4.0819 4.3476-5.4627 13.064 8.7282-3.3828 6.1072-1.742 6.4646 0.29679 15.199 8.2967 3.4355 10.955-10.539 3.3397-5.8006 1.9277-6.7107 15.408 3.0643-0.78708 6.9392 0.86517 6.6365 6.0896 13.93h8.9802l6.0896-13.93 0.86527-6.6365-0.78907-6.9392 15.408-3.0643 1.9278 6.7107 3.3397 5.8006 10.957 10.539 8.2948-3.4355 0.29679-15.199-1.7402-6.4646-3.3827-6.1072 13.062-8.7282 4.3495 5.4627 5.3045 4.0819 14.154 5.5428 6.3494-6.3494-5.5428-14.156-4.08-5.3046-5.4646-4.3495 8.7282-13.062 6.1092 3.3827 6.4627 1.7402 15.199-0.29492 3.4374-8.2966-10.539-10.957-5.8005-3.3378-6.7108-1.9276 3.0644-15.41 6.9373 0.78905 6.6384-0.86522 13.928-6.0896v-8.9802l-13.928-6.0896-6.6384-0.86522-6.9373 0.78904-3.0644-15.41 6.7108-1.9257 5.8005-3.3397 10.539-10.957-3.4374-8.2966-15.199-0.29492-6.4627 1.7402-6.1092 3.3827-8.7282-13.062 5.4646-4.3495 4.08-5.3045 5.5428-14.156-6.3494-6.3494-14.154 5.5428-5.3045 4.0819-4.3495 5.4627-13.062-8.7282 3.3827-6.1072 1.7402-6.4627-0.29679-15.199-8.2948-3.4374-10.957 10.539-3.3397 5.8006-1.9278 6.7107-15.408-3.0643 0.78907-6.9373-0.86527-6.6385-6.0896-13.928h-8.9802zm-5.6931 45.185a12.471 12.471 0 0 1 12.471 12.473 12.471 12.471 0 0 1 -12.471 12.471 12.471 12.471 0 0 1 -12.473 -12.471 12.471 12.471 0 0 1 12.473 -12.473zm60.498 21.499a12.471 12.471 0 0 1 12.471 12.473 12.471 12.471 0 0 1 -12.471 12.471 12.471 12.471 0 0 1 -12.473 -12.471 12.471 12.471 0 0 1 12.473 -12.473zm-109 18.999a12.471 12.471 0 0 1 12.471 12.473 12.471 12.471 0 0 1 -12.471 12.471 12.471 12.471 0 0 1 -12.473 -12.471 12.471 12.471 0 0 1 12.473 -12.473zm120 44.499a12.471 12.471 0 0 1 12.471 12.473 12.471 12.471 0 0 1 -12.471 12.471 12.471 12.471 0 0 1 -12.473 -12.471 12.471 12.471 0 0 1 12.473 -12.473zm-109 18.499a12.471 12.471 0 0 1 12.471 12.473 12.471 12.471 0 0 1 -12.471 12.471 12.471 12.471 0 0 1 -12.473 -12.471 12.471 12.471 0 0 1 12.473 -12.473zm59.498 21.499a12.471 12.471 0 0 1 12.471 12.473 12.471 12.471 0 0 1 -12.471 12.471 12.471 12.471 0 0 1 -12.473 -12.471 12.471 12.471 0 0 1 12.473 -12.473z" fill="#e9e9e9" stroke-width=".99997"/>
<path d="m382.37 422.22 4.0533-0.70406 1.8218 0.12907 6.2101 2.8768v3.4602l-6.2101 2.8768-1.8218 0.12906-4.0533-0.70406-2.0632 6.35 3.693 1.8129 1.398 1.1752 3.3331 5.9777-2.034 2.7995-6.7151-1.3228-1.5497-0.96639-2.8654-2.9521-5.4017 3.9245 1.9222 3.6373 0.44021 1.7725-0.817 6.7952-3.2909 1.0693-4.6552-5.0172-0.68568-1.6927-0.58293-4.0724h-6.6768l-0.58293 4.0724-0.68569 1.6927-4.6552 5.0172-3.2909-1.0693-0.81701-6.7952 0.44021-1.7725 1.9222-3.6373-5.4017-3.9245-2.8653 2.9521-1.5497 0.96639-6.7151 1.3228-2.034-2.7995 3.3331-5.9777 1.398-1.1752 3.693-1.8129-2.0632-6.35-4.0533 0.70406-1.8218-0.12906-6.2101-2.8768v-3.4602l6.2101-2.8768 1.8218-0.12907 4.0533 0.70406 2.0632-6.35-3.693-1.8128-1.398-1.1752-3.3331-5.9777 2.034-2.7995 6.7151 1.3228 1.5497 0.96639 2.8653 2.9521 5.4017-3.9245-1.9222-3.6373-0.44021-1.7725 0.81701-6.7952 3.2909-1.0693 4.6552 5.0172 0.68569 1.6927 0.58293 4.0724h6.6768l0.58293-4.0724 0.68568-1.6927 4.6552-5.0172 3.2909 1.0693 0.817 6.7952-0.44021 1.7725-1.9222 3.6373 5.4017 3.9245 2.8654-2.9521 1.5497-0.96639 6.7151-1.3228 2.034 2.7995-3.3331 5.9777-1.398 1.1752-3.693 1.8128z" fill="#e9e9e9" stroke-width=".99999"/>
<path d="m361.27 426.24a2 2 0 0 1 -2 2 2 2 0 0 1 -2 -2 2 2 0 0 1 2 -2 2 2 0 0 1 2 2z" fill="#818181"/>
</g>
<path d="m543.32 489.15-9.9746 0.58203-4.3047 13.195-2.6211 13.111-11.791 1.377-5.5742-12.152-7.2324-11.848-9.8399 1.7363-2.7421 13.605-1.0821 13.326-11.551 2.7383-6.9472-11.424-8.5586-10.928-9.5723 2.8652-1.1445 13.832 0.4726 13.363-11.154 4.0586-8.2265-10.539-9.7695-9.8594-9.1739 3.957 0.4668 13.873 2.0215 13.217-10.607 5.3262-9.3946-9.5137-10.848-8.6582-8.6543 4.9941 2.0762 13.725 3.541 12.893-9.916 6.5234-10.436-8.3594-11.781-7.3398-8.0137 5.9668 3.6543 13.389 5.0137 12.395-9.0918 7.6309-11.336-7.0918-12.553-5.9238-7.2676 6.8574 5.1856 12.875 6.4179 11.729-8.1445 8.6348-12.082-5.7266-13.156-4.4277-6.4218 7.6543 6.6445 12.188 7.7363 10.904-7.0879 9.5195-12.664-4.2852-13.58-2.8691-5.4922 8.3477 8.0156 11.334 8.9512 9.9316-5.9356 10.279-13.078-2.7852-13.82-1.2754-4.4844 8.9297 9.2754 10.326 10.043 8.8262-4.7012 10.898-13.312-1.248-13.875 0.33789-3.418 9.3906 10.412 9.1777 11 7.6016-3.4043 11.371-13.367 0.30469-13.742 1.9473-2.3047 9.7226 11.406 7.9082 11.809 6.2715-2.0605 11.689-13.242 1.8555-13.424 3.5293-1.1582 9.9258 12.246 6.5293 12.457 4.8594-0.6895 11.85-12.938 3.3789-12.922 5.0644v9.9922l12.922 5.0644 12.938 3.3809 0.6895 11.85-12.457 4.8574-12.246 6.5312 1.1582 9.9238 13.424 3.5312 13.242 1.8535 2.0605 11.689-11.809 6.2715-11.406 7.9082 2.3047 9.7227 13.742 1.9492 13.367 0.3047 3.4043 11.371-11 7.5996-10.412 9.1797 3.418 9.3886 13.875 0.3399 13.312-1.25 4.7012 10.9-10.043 8.8261-9.2754 10.324 4.4844 8.9296 13.82-1.2734 13.078-2.7851 5.9356 10.279-8.9512 9.9317-8.0156 11.332 5.4922 8.3496 13.58-2.8711 12.664-4.2851 7.0879 9.5215-7.7363 10.904-6.6445 12.186 6.4218 7.6543 13.156-4.4258 12.082-5.7265 8.1445 8.6328-6.4179 11.728-5.1856 12.877 7.2676 6.8555 12.553-5.9238 11.336-7.0899 9.0918 7.6289-5.0137 12.395-3.6543 13.391 8.0137 5.9668 11.781-7.3418 10.436-8.3574 9.916 6.5215-3.541 12.892-2.0762 13.725 8.6543 4.996 10.848-8.6601 9.3946-9.5137 10.607 5.3281-2.0215 13.217-0.4668 13.873 9.1739 3.957 9.7695-9.8613 8.2265-10.539 11.154 4.0606-0.4726 13.361 1.1445 13.832 9.5723 2.8672 8.5586-10.928 6.9472-11.424 11.551 2.7363 1.0821 13.328 2.7421 13.606 9.8399 1.7344 7.2324-11.846 5.5742-12.154 11.791 1.3789 2.6211 13.109 4.3047 13.197 9.9746 0.5801 5.8067-12.606 4.1269-12.719h11.869l4.1269 12.719 5.8067 12.606 9.9746-0.5801 4.3047-13.197 2.623-13.109 11.789-1.3789 5.5742 12.154 7.2324 11.846 9.8398-1.7344 2.7442-13.606 1.0801-13.328 11.551-2.7363 6.9473 11.424 8.5586 10.928 9.5723-2.8672 1.1445-13.832-0.4727-13.361 11.154-4.0606 8.2266 10.539 9.7695 9.8613 9.1739-3.957-0.4668-13.873-2.0215-13.217 10.607-5.3281 9.3945 9.5137 10.848 8.6601 8.6543-4.996-2.0762-13.725-3.541-12.892 9.916-6.5215 10.436 8.3574 11.781 7.3418 8.0137-5.9668-3.6543-13.391-5.0137-12.395 9.0918-7.6289 11.336 7.0899 12.553 5.9238 7.2676-6.8555-5.1836-12.877-6.4199-11.728 8.1445-8.6328 12.082 5.7265 13.156 4.4258 6.4218-7.6543-6.6445-12.186-7.7363-10.904 7.0879-9.5215 12.664 4.2851 13.582 2.8711 5.4902-8.3496-8.0137-11.332-8.9511-9.9317 5.9336-10.279 13.078 2.7851 13.82 1.2734 4.4844-8.9296-9.2754-10.324-10.043-8.8261 4.7012-10.9 13.312 1.25 13.875-0.3399 3.4179-9.3886-10.412-9.1797-11-7.5996 3.4043-11.371 13.367-0.3047 13.742-1.9492 2.3047-9.7227-11.406-7.9082-11.809-6.2715 2.0606-11.689 13.242-1.8535 13.424-3.5312 1.1602-9.9238-12.248-6.5312-12.457-4.8574 0.6894-11.85 12.938-3.3809 12.922-5.0644v-9.9922l-12.922-5.0644-12.938-3.3789-0.6894-11.85 12.457-4.8594 12.248-6.5293-1.1602-9.9258-13.424-3.5293-13.242-1.8555-2.0606-11.689 11.809-6.2715 11.406-7.9082-2.3047-9.7226-13.742-1.9473-13.367-0.30469-3.4043-11.371 11-7.6016 10.412-9.1777-3.4179-9.3906-13.875-0.33789-13.312 1.248-4.7012-10.898 10.043-8.8262 9.2754-10.326-4.4844-8.9297-13.82 1.2754-13.078 2.7852-5.9336-10.279 8.9511-9.9316 8.0137-11.334-5.4902-8.3477-13.582 2.8691-12.664 4.2852-7.0879-9.5195 7.7363-10.904 6.6445-12.188-6.4218-7.6543-13.156 4.4277-12.082 5.7266-8.1445-8.6348 6.4199-11.729 5.1836-12.875-7.2676-6.8574-12.553 5.9238-11.336 7.0918-9.0918-7.6309 5.0137-12.395 3.6543-13.389-8.0137-5.9668-11.781 7.3398-10.436 8.3594-9.916-6.5234 3.541-12.893 2.0762-13.725-8.6543-4.9941-10.848 8.6582-9.3945 9.5137-10.607-5.3262 2.0215-13.217 0.4668-13.873-9.1739-3.957-9.7695 9.8594-8.2266 10.539-11.154-4.0586 0.4727-13.363-1.1445-13.832-9.5723-2.8652-8.5586 10.928-6.9473 11.424-11.551-2.7383-1.0801-13.326-2.7442-13.605-9.8398-1.7363-7.2324 11.848-5.5742 12.152-11.789-1.377-2.623-13.111-4.3047-13.195-9.9746-0.58203-5.8067 12.607-4.1269 12.719h-11.869l-4.1269-12.719-5.8067-12.607zm15.869 56.508c45.701 0.0786 90.787 10.533 131.86 30.574l-107.13 185.55c-8.2264-2.4666-16.767-3.7265-25.355-3.7402-8.5843 0.0235-17.12 1.2919-25.34 3.7656l-106.89-185.13c41.337-20.342 86.781-30.952 132.85-31.018zm167.5 51.004c77.497 51.838 126.69 136.58 133.28 229.58h-215.15c-4.0101-16.773-12.819-32.015-25.35-43.863l107.22-185.72zm-335.89 0.63086 106.83 185.04c-12.529 11.865-21.329 27.125-25.322 43.912h-214.13c6.6254-92.658 55.544-177.1 132.62-228.95zm167.76 191.54a58 58 0 0 1 58 58 58 58 0 0 1 -58 58 58 58 0 0 1 -58 -58 58 58 0 0 1 58 -58zm-300.22 78.498h213.96c3.9979 16.788 12.802 32.047 25.336 43.91l-107.43 186.08c-77.068-52.229-125.72-137.1-131.86-229.99zm386.5 0h215.41c-6.1987 93.32-55.303 178.5-132.96 230.62l-107.77-186.66c12.534-11.88 21.33-27.157 25.312-43.961zm-60.898 64.496 107.78 186.69c-41.252 20.246-86.582 30.807-132.54 30.877-46.323-0.056-92.012-10.773-133.53-31.32l107.51-186.22c8.2372 2.4733 16.79 3.736 25.391 3.75 8.5971-0.023 17.145-1.2948 25.377-3.7754z" fill="#e9e9e9" stroke="#818181" stroke-linecap="round" stroke-linejoin="round"/>
</svg>
